HIERARCHY
ROOT Hips
{
	OFFSET 0.000000 0.000000 0.000000
	CHANNELS 6 Xposition Yposition Zposition Zrotation Yrotation Xrotation 
	JOINT LHipJoint
	{
		OFFSET 0.000000 0.000000 0.000000
		CHANNELS 3 Zrotation Yrotation Xrotation
		JOINT LeftUpLeg
		{
			OFFSET 1.363060 -1.794630 0.839290
			CHANNELS 3 Zrotation Yrotation Xrotation
			JOINT LeftLeg
			{
				OFFSET 2.448110 -6.726130 0.000000
				CHANNELS 3 Zrotation Yrotation Xrotation
				JOINT LeftFoot
				{
					OFFSET 2.562200 -7.039590 0.000000
					CHANNELS 3 Zrotation Yrotation Xrotation
					JOINT LeftToeBase
					{
						OFFSET 0.157640 -0.433110 2.322550
						CHANNELS 3 Zrotation Yrotation Xrotation
						End Site
						{
							OFFSET 0.000000 0.000000 0.000000
						}
					}
				}
			}
		}
	}
	JOINT RHipJoint
	{
		OFFSET 0.000000 0.000000 0.000000
		CHANNELS 3 Zrotation Yrotation Xrotation
		JOINT RightUpLeg
		{
			OFFSET -1.305520 -1.794630 0.839290
			CHANNELS 3 Zrotation Yrotation Xrotation
			JOINT RightLeg
			{
				OFFSET -2.542530 -6.985550 0.000000
				CHANNELS 3 Zrotation Yrotation Xrotation
				JOINT RightFoot
				{
					OFFSET -2.568260 -7.056230 0.000000
					CHANNELS 3 Zrotation Yrotation Xrotation
					JOINT RightToeBase
					{
						OFFSET -0.164730 -0.452590 2.363150
						CHANNELS 3 Zrotation Yrotation Xrotation
						End Site
						{
							OFFSET 0.000000 0.000000 0.000000
						}
					}
				}
			}
		}
	}
	JOINT LowerBack
	{
		OFFSET 0.000000 0.000000 0.000000
		CHANNELS 3 Zrotation Yrotation Xrotation
		JOINT Spine
		{
			OFFSET 0.028270 2.035590 -0.193380
			CHANNELS 3 Zrotation Yrotation Xrotation
			JOINT Spine1
			{
				OFFSET 0.056720 2.048850 -0.042750
				CHANNELS 3 Zrotation Yrotation Xrotation
				JOINT Neck
				{
					OFFSET 0.000000 0.000000 0.000000
					CHANNELS 3 Zrotation Yrotation Xrotation
					JOINT Neck1
					{
						OFFSET -0.054170 1.746240 0.172020
						CHANNELS 3 Zrotation Yrotation Xrotation
						JOINT Head
						{
							OFFSET 0.104070 1.761360 -0.123970
							CHANNELS 3 Zrotation Yrotation Xrotation
							End Site
							{
								OFFSET 0.000000 0.000000 0.000000
							}
						}
					}
				}
				JOINT LeftShoulder
				{
					OFFSET 0.000000 0.000000 0.000000
					CHANNELS 3 Zrotation Yrotation Xrotation
					JOINT LeftArm
					{
						OFFSET 3.362410 1.200890 -0.311210
						CHANNELS 3 Zrotation Yrotation Xrotation
						JOINT LeftForeArm
						{
							OFFSET 4.983000 -0.000000 -0.000000
							CHANNELS 3 Zrotation Yrotation Xrotation
							JOINT LeftHand
							{
								OFFSET 3.483560 -0.000000 -0.000000
								CHANNELS 3 Zrotation Yrotation Xrotation
								JOINT LeftFingerBase
								{
									OFFSET 0.000000 0.000000 0.000000
									CHANNELS 3 Zrotation Yrotation Xrotation
									JOINT LeftHandIndex1
									{
										OFFSET 0.715260 -0.000000 -0.000000
										CHANNELS 3 Zrotation Yrotation Xrotation
										End Site
										{
											OFFSET 0.000000 0.000000 0.000000
										}
									}
								}
								JOINT LThumb
								{
									OFFSET 0.000000 0.000000 0.000000
									CHANNELS 3 Zrotation Yrotation Xrotation
									End Site
									{
										OFFSET 0.000000 0.000000 0.000000
									}
								}
							}
						}
					}
				}
				JOINT RightShoulder
				{
					OFFSET 0.000000 0.000000 0.000000
					CHANNELS 3 Zrotation Yrotation Xrotation
					JOINT RightArm
					{
						OFFSET -3.136600 1.374050 -0.404650
						CHANNELS 3 Zrotation Yrotation Xrotation
						JOINT RightForeArm
						{
							OFFSET -5.241900 -0.000000 -0.000000
							CHANNELS 3 Zrotation Yrotation Xrotation
							JOINT RightHand
							{
								OFFSET -3.444170 -0.000000 -0.000000
								CHANNELS 3 Zrotation Yrotation Xrotation
								JOINT RightFingerBase
								{
									OFFSET 0.000000 0.000000 0.000000
									CHANNELS 3 Zrotation Yrotation Xrotation
									JOINT RightHandIndex1
									{
										OFFSET -0.622530 -0.000000 -0.000000
										CHANNELS 3 Zrotation Yrotation Xrotation
										End Site
										{
											OFFSET 0.000000 0.000000 0.000000
										}
									}
								}
								JOINT RThumb
								{
									OFFSET 0.000000 0.000000 0.000000
									CHANNELS 3 Zrotation Yrotation Xrotation
									End Site
									{
										OFFSET 0.000000 0.000000 0.000000
									}
								}
							}
						}
					}
				}
			}
		}
	}
}
MOTION
Frames: 8
Frame Time: 0.033333
-1.681428 17.134867 23.790077 -0.916469 -12.846207 13.030134 -7.348829 7.207578 9.262829 -11.016747 -17.924761 -13.351894 27.706567 -22.961626 -34.036627 -6.348741 5.943948 77.071887 0.000000 0.000000 0.000000 8.993089 -13.333940 -3.046766 17.640123 19.982959 -17.340015 -12.632841 -12.449975 70.447698 11.790881 -5.590458 -16.249174 0.000000 0.000000 0.000000 -3.266608 3.421547 4.393693 -1.302242 2.559303 1.531812 5.917904 2.438935 -6.822028 5.097753 0.725779 -6.841934 2.931735 0.743218 -7.914380 0.000000 0.000000 0.000000 -2.796620 9.414923 17.880306 -80.382246 -5.145657 -23.365067 -145.273610 -73.210096 179.158153 9.463370 -8.360115 -0.434752 9.589739 -8.286399 0.000000 0.000000 0.000000 0.000000 0.000000 0.000000 0.000000 4.257073 -13.534379 5.303522 52.314767 7.114103 22.267254 24.347241 72.093924 0.416076 0.413970 10.748280 0.206564 0.407342 10.754297 0.000000 0.000000 0.000000 0.000000 0.000000 0.000000 0.000000 
-1.701338 17.156459 23.982216 -0.287637 -12.210826 12.487524 -5.494091 6.869946 8.093237 -14.640454 -17.694740 -10.819651 26.831258 -22.903201 -32.358629 -5.878608 4.782360 73.041681 0.000000 0.000000 0.000000 8.250367 -12.037287 -3.371406 16.956902 18.295335 -15.721830 -11.601880 -13.791500 69.132726 11.714730 -6.101772 -15.442984 0.000000 0.000000 0.000000 -3.793903 3.205211 5.220808 -1.314340 2.298062 0.868720 5.587423 2.170797 -6.081438 5.201193 0.650022 -6.754195 2.841904 0.669282 -6.971741 0.000000 0.000000 0.000000 -2.226186 9.027482 18.001841 -80.759063 -5.004685 -22.470002 -145.325091 -74.035106 179.133499 9.982667 -8.928717 -0.447997 10.118904 -8.848258 0.000000 0.000000 0.000000 0.000000 0.000000 0.000000 0.000000 3.142250 -13.547121 5.142735 54.172067 7.688306 21.342919 26.683542 70.796014 0.381937 0.568487 10.365932 0.189706 0.562590 10.371497 0.000000 0.000000 0.000000 0.000000 0.000000 0.000000 0.000000 
-1.719798 17.180430 24.172146 0.286163 -11.576638 11.963441 -3.913380 6.587076 6.981001 -17.778731 -17.284471 -8.588940 25.685350 -22.736497 -30.495182 -5.271323 3.769801 68.939060 0.000000 0.000000 0.000000 7.651147 -10.735152 -3.617837 16.131711 16.596236 -14.143431 -10.482080 -15.076726 67.681785 11.570078 -6.520994 -14.604189 0.000000 0.000000 0.000000 -4.244650 2.946597 5.982409 -1.240716 2.003432 0.232965 5.170073 1.894573 -5.370863 5.256316 0.446241 -6.618890 2.331246 0.487554 -5.026563 0.000000 0.000000 0.000000 -1.774807 8.740348 18.099685 -81.050535 -4.765705 -21.495752 -145.365269 -74.973705 179.114269 10.493438 -9.520328 -0.458584 10.640009 -9.432560 0.000000 0.000000 0.000000 0.000000 0.000000 0.000000 0.000000 2.101682 -13.517211 5.000470 55.913637 8.281143 20.365498 29.011375 69.414774 0.341758 0.679757 9.873537 0.169826 0.674312 9.878521 0.000000 0.000000 0.000000 0.000000 0.000000 0.000000 0.000000 
-1.735595 17.206262 24.359140 0.806114 -10.926323 11.481140 -2.624801 6.361869 5.958606 -20.393875 -16.767680 -6.713764 24.290382 -22.450989 -28.502395 -4.588238 2.924509 64.867946 0.000000 0.000000 0.000000 7.206336 -9.479219 -3.766319 15.165098 14.926261 -12.660335 -9.287469 -16.281529 66.126128 11.367911 -6.847549 -13.746806 0.000000 0.000000 0.000000 -4.613031 2.706006 6.636030 -1.161572 1.720837 -0.175879 4.744371 1.641329 -4.916542 5.360366 0.327870 -6.513615 2.062661 0.386586 -3.800668 0.000000 0.000000 0.000000 -1.437130 8.499929 18.176093 -81.266472 -4.405298 -20.326058 -145.468115 -76.037353 179.105528 10.968371 -10.133243 -0.463938 11.125332 -10.037925 0.000000 0.000000 0.000000 0.000000 0.000000 0.000000 0.000000 1.130626 -13.632083 4.824956 57.485939 8.853580 19.379463 31.459610 67.932582 0.297980 0.766946 9.266289 0.148140 0.761873 9.270642 0.000000 0.000000 0.000000 0.000000 0.000000 0.000000 0.000000 
-1.748731 17.233427 24.542504 1.270566 -10.279815 11.072513 -1.634996 6.201192 5.064393 -22.473220 -16.227534 -5.242985 22.717257 -22.043976 -26.424170 -3.896831 2.226231 60.882221 0.000000 0.000000 0.000000 6.920307 -8.298810 -3.805464 14.064905 13.331405 -11.322343 -8.027012 -17.385742 64.500000 11.120034 -7.080908 -12.893486 0.000000 0.000000 0.000000 -4.902455 2.483686 7.151650 -1.087047 1.453527 -0.391654 4.324656 1.412206 -4.698261 5.530393 0.286594 -6.421973 2.003213 0.348318 -3.246428 0.000000 0.000000 0.000000 -1.221686 8.297821 18.234336 -81.408327 -3.919994 -18.967743 -145.644916 -77.236759 179.108184 11.400530 -10.766540 -0.463612 11.567879 -10.663505 0.000000 0.000000 0.000000 0.000000 0.000000 0.000000 0.000000 0.235514 -13.877528 4.623974 58.878946 9.400922 18.373235 34.007967 66.333664 0.251073 0.819237 8.531826 0.124877 0.814461 8.535514 0.000000 0.000000 0.000000 0.000000 0.000000 0.000000 0.000000 
-1.758595 17.261657 24.721856 1.825429 -9.715752 10.521635 -0.576527 5.980171 3.814927 -24.857447 -15.254089 -3.317768 21.115921 -21.455759 -24.460514 -3.160123 1.952957 57.663483 0.000000 0.000000 0.000000 6.709910 -7.066100 -3.615108 12.575605 11.609372 -9.947005 -6.469509 -18.489667 62.547700 10.586830 -6.873484 -12.327572 0.000000 0.000000 0.000000 -5.262493 2.278504 7.726152 -1.004505 1.195752 -0.506238 3.843465 1.207076 -4.620260 5.758438 0.271314 -6.277148 2.004375 0.327757 -2.899435 0.000000 0.000000 0.000000 -1.082957 8.131756 18.245513 -81.486649 -3.243071 -16.956057 -146.110317 -79.039003 178.932971 12.730083 -11.959681 -0.557800 12.948214 -11.822677 0.000000 0.000000 0.000000 0.000000 0.000000 0.000000 0.000000 -0.691738 -14.216062 4.378684 60.256585 10.042400 17.005770 37.083503 63.999511 0.202485 0.863056 7.741367 0.100748 0.858489 7.744418 0.000000 0.000000 0.000000 0.000000 0.000000 0.000000 0.000000 
-1.764567 17.290541 24.897183 2.462491 -9.285066 9.849083 0.522572 5.684752 2.209231 -27.432092 -13.825429 -0.980128 19.562290 -20.700547 -22.688450 -2.419477 2.132760 55.381891 0.000000 0.000000 0.000000 6.612177 -5.810046 -3.150390 10.681589 9.826037 -8.573643 -4.600634 -19.536925 60.277892 9.794163 -6.243954 -12.050118 0.000000 0.000000 0.000000 -5.699593 2.099398 8.337233 -0.918083 0.956976 -0.524886 3.304304 1.036567 -4.703590 6.048342 0.282086 -6.060297 2.068345 0.324393 -2.760189 0.000000 0.000000 0.000000 -1.013317 8.013704 18.196426 -81.498064 -2.362213 -14.261818 -146.999169 -81.523793 178.573832 14.941099 -13.825899 -0.753657 15.269936 -13.614054 0.000000 0.000000 0.000000 0.000000 0.000000 0.000000 0.000000 -1.656390 -14.659164 4.067353 61.583060 10.826546 15.149976 40.650356 60.636401 0.150531 0.869368 6.859617 0.074912 0.864896 6.862046 0.000000 0.000000 0.000000 0.000000 0.000000 0.000000 0.000000 
-1.767112 17.319744 25.067994 2.941271 -8.901901 9.350284 1.228171 5.519787 1.018375 -29.133451 -12.655478 0.590929 17.970757 -19.891870 -20.922942 -1.790014 2.285063 53.078048 0.000000 0.000000 0.000000 6.615609 -4.750432 -2.781088 9.170966 8.356345 -7.326667 -3.110384 -20.292519 58.318689 9.268503 -6.040848 -11.311118 0.000000 0.000000 0.000000 -5.976067 1.888013 8.764999 -0.823783 0.696153 -0.451872 2.612047 0.859661 -5.002010 6.492333 0.307965 -5.791404 2.216221 0.338728 -2.806674 0.000000 0.000000 0.000000 -0.911346 8.094011 18.161432 -81.403035 -1.441940 -11.947414 -147.810708 -83.717163 178.427113 16.157700 -15.233457 -0.839106 16.563048 -14.968305 0.000000 0.000000 0.000000 0.000000 0.000000 0.000000 0.000000 -2.959064 -15.397403 3.496059 63.071861 12.219613 11.825563 45.431077 53.868984 0.085971 0.837142 5.890739 0.042746 0.832478 5.892555 0.000000 0.000000 0.000000 0.000000 0.000000 0.000000 0.000000 
